<svg xmlns="http://www.w3.org/2000/svg" data-name="Layer 1" viewBox="0 0 100 125" x="0px" y="0px" fill="#f1f1f1"><title>Artboard 56</title><path d="M90.79,37.57a3.19,3.19,0,1,1-3.19-3.19A3.2,3.2,0,0,1,90.79,37.57Zm.48-13.41A11.38,11.38,0,0,0,99,13,11.51,11.51,0,0,0,87.58,1.88h-.07A11.36,11.36,0,0,0,77.29,8.36,3.18,3.18,0,1,0,83,11.12a5.05,5.05,0,0,1,4.54-2.88h0a5.2,5.2,0,0,1,5.12,4.93,5.06,5.06,0,0,1-3.45,5,7,7,0,0,0-4.81,6.55v2.71a3.18,3.18,0,0,0,6.35,0V24.69C90.77,24.33,91.21,24.17,91.27,24.15ZM99,94.73a3.39,3.39,0,0,1-3.38,3.38H4.35A3.39,3.39,0,0,1,1,94.73c0-17.2,21.69-24.06,31-26.22a.25.25,0,0,0,.19-.25V64.62a28.42,28.42,0,0,1-4.74-9.45C25,52.77,23.92,49,23.34,46.9c-.95-3.34-1.9-8.19.71-11.64l.12-.15c-.17-1-.3-2-.38-3-1.18-7.84-.27-13.69,2.71-17.35A9.89,9.89,0,0,1,33,11.08c1.52-5.25,8.94-10.37,15.67-9C55.2,3.48,68.83,1.94,69,1.92a.68.68,0,0,1,.48.14.64.64,0,0,1,.23.45,6.72,6.72,0,0,1-1.92,4.89c10.9,7.27,9.33,21.62,8.07,27.69l.11.15c2.61,3.46,1.66,8.3.72,11.64-.58,2.06-1.66,5.88-4.1,8.29a28.3,28.3,0,0,1-4.74,9.38v3.7a.26.26,0,0,0,.19.25C77.34,70.67,99,77.54,99,94.73ZM64.66,74.39a7,7,0,0,1-3.2-3.84A23.19,23.19,0,0,1,56.58,73a19.72,19.72,0,0,1-13.16,0,22.69,22.69,0,0,1-4.9-2.44,7,7,0,0,1-3.19,3.79A17.89,17.89,0,0,0,50,81.68,17.89,17.89,0,0,0,64.66,74.39Zm3-23.18c.35,0,1.6-.54,3.13-6,1.2-4.24.69-5.78.29-6.32a1.55,1.55,0,0,0-1.45-.5.65.65,0,0,1-.57-.24.64.64,0,0,1-.1-.61l0-.13c.3-1,1.56-6.18-2.82-9.42-3.85.86-10.16,1.09-18.64-2.53-4.14-1.77-7.62-1.83-10.32-.18-5.42,3.3-6.16,12.43-6.17,12.52a.64.64,0,0,1-.68.59h-.29a1.38,1.38,0,0,0-1.19.52c-.41.54-.91,2.08.29,6.32,1.54,5.43,2.79,5.94,3.13,6a.64.64,0,0,1,.59.54c.88,5.67,5.17,13,12.54,15.55a13.55,13.55,0,0,0,9.08,0c7.07-2.55,11.68-9.74,12.57-15.54A.64.64,0,0,1,67.68,51.21Zm-8.4-15.8a6.34,6.34,0,0,0-1.15-.1h0a6.35,6.35,0,0,0-1.16.1,6.12,6.12,0,0,0-4.76,4.37A6.29,6.29,0,0,0,52,41.21a1.42,1.42,0,0,0,.39,1.05,1.48,1.48,0,0,0,1.06.45,1.44,1.44,0,0,0,1.09-.5,4.79,4.79,0,0,1,3.56-1.62h.07a4.79,4.79,0,0,1,3.55,1.62,1.44,1.44,0,0,0,1.09.5,1.48,1.48,0,0,0,1.06-.45,1.42,1.42,0,0,0,.39-1.05A6.28,6.28,0,0,0,64,39.79,6.12,6.12,0,0,0,59.28,35.42ZM41.84,40.59h.07a4.79,4.79,0,0,1,3.55,1.62,1.44,1.44,0,0,0,1.09.5,1.48,1.48,0,0,0,1.06-.45A1.42,1.42,0,0,0,48,41.21a6.29,6.29,0,0,0-.22-1.42A6.12,6.12,0,0,0,43,35.42a6.34,6.34,0,0,0-1.15-.1h0a6.35,6.35,0,0,0-1.16.1A6.12,6.12,0,0,0,36,39.79a6.26,6.26,0,0,0-.22,1.42,1.42,1.42,0,0,0,.39,1.05,1.48,1.48,0,0,0,1.06.45,1.44,1.44,0,0,0,1.09-.5A4.79,4.79,0,0,1,41.84,40.59Zm19.48,12a4.87,4.87,0,0,1-.81.06,5.23,5.23,0,0,1-2.61-1.12A7.64,7.64,0,0,0,53.72,50,6.11,6.11,0,0,0,50,51.26,6.11,6.11,0,0,0,46.28,50a7.64,7.64,0,0,0-4.18,1.57,5.23,5.23,0,0,1-2.62,1.12,4.87,4.87,0,0,1-.81-.06,1.1,1.1,0,0,0-1.15.54,1.09,1.09,0,0,0,.11,1.25,7.29,7.29,0,0,0,5.89,2.49c3.22,0,5.4-1.16,6.48-2.36,1.08,1.2,3.26,2.36,6.48,2.36a7.29,7.29,0,0,0,5.89-2.49,1.09,1.09,0,0,0,.11-1.25A1.1,1.1,0,0,0,61.32,52.62Z"/></svg>